<mxfile host="65bd71144e">
    <diagram id="RNv53SitTSAy8S8B-zxX" name="第 1 页">
        <mxGraphModel dx="697" dy="662" grid="1" gridSize="10" guides="1" tooltips="1" connect="1" arrows="1" fold="1" page="1" pageScale="1" pageWidth="827" pageHeight="1169" background="#FFFFFF" math="0" shadow="0">
            <root>
                <mxCell id="0"/>
                <mxCell id="1" parent="0"/>
                <mxCell id="2" value="checkGo" style="shape=umlFrame;whiteSpace=wrap;html=1;pointerEvents=0;recursiveResize=0;container=1;collapsible=0;width=150;height=30;" parent="1" vertex="1">
                    <mxGeometry x="29" y="160" width="770" height="820" as="geometry"/>
                </mxCell>
                <mxCell id="61" style="edgeStyle=none;html=1;exitX=0.5;exitY=1;exitDx=0;exitDy=0;entryX=0.5;entryY=0;entryDx=0;entryDy=0;" parent="2" source="58" target="59" edge="1">
                    <mxGeometry relative="1" as="geometry">
                        <Array as="points">
                            <mxPoint x="475" y="630"/>
                            <mxPoint x="385" y="630"/>
                        </Array>
                    </mxGeometry>
                </mxCell>
                <mxCell id="63" value="遍历结束" style="edgeLabel;html=1;align=center;verticalAlign=middle;resizable=0;points=[];" vertex="1" connectable="0" parent="61">
                    <mxGeometry x="-0.7789" y="3" relative="1" as="geometry">
                        <mxPoint as="offset"/>
                    </mxGeometry>
                </mxCell>
                <mxCell id="58" value="" style="rounded=0;whiteSpace=wrap;html=1;glass=0;shadow=0;" parent="2" vertex="1">
                    <mxGeometry x="210" y="50" width="530" height="530" as="geometry"/>
                </mxCell>
                <mxCell id="4" value="import:&lt;div&gt;point&lt;/div&gt;" style="rounded=0;whiteSpace=wrap;html=1;" parent="2" vertex="1">
                    <mxGeometry x="35" y="80" width="100" height="40" as="geometry"/>
                </mxCell>
                <mxCell id="6" value="" style="endArrow=classic;html=1;exitX=0.108;exitY=0.037;exitDx=0;exitDy=0;exitPerimeter=0;" parent="2" source="2" target="4" edge="1">
                    <mxGeometry width="50" height="50" relative="1" as="geometry">
                        <mxPoint x="330" y="230" as="sourcePoint"/>
                        <mxPoint x="380" y="180" as="targetPoint"/>
                    </mxGeometry>
                </mxCell>
                <mxCell id="11" style="edgeStyle=none;html=1;exitX=0.5;exitY=1;exitDx=0;exitDy=0;entryX=0;entryY=0.5;entryDx=0;entryDy=0;" parent="2" source="8" target="59" edge="1">
                    <mxGeometry relative="1" as="geometry">
                        <mxPoint x="85" y="680" as="targetPoint"/>
                        <Array as="points">
                            <mxPoint x="91" y="710"/>
                        </Array>
                    </mxGeometry>
                </mxCell>
                <mxCell id="12" value="是" style="edgeLabel;html=1;align=center;verticalAlign=middle;resizable=0;points=[];" parent="11" vertex="1" connectable="0">
                    <mxGeometry x="-0.1978" y="-3" relative="1" as="geometry">
                        <mxPoint as="offset"/>
                    </mxGeometry>
                </mxCell>
                <mxCell id="15" style="edgeStyle=none;html=1;exitX=1;exitY=0.5;exitDx=0;exitDy=0;entryX=0.5;entryY=0;entryDx=0;entryDy=0;" parent="2" source="8" target="13" edge="1">
                    <mxGeometry relative="1" as="geometry">
                        <Array as="points">
                            <mxPoint x="190" y="195"/>
                            <mxPoint x="190" y="30"/>
                            <mxPoint x="330" y="30"/>
                        </Array>
                    </mxGeometry>
                </mxCell>
                <mxCell id="17" value="否" style="edgeLabel;html=1;align=center;verticalAlign=middle;resizable=0;points=[];" parent="15" vertex="1" connectable="0">
                    <mxGeometry x="-0.9065" y="-2" relative="1" as="geometry">
                        <mxPoint as="offset"/>
                    </mxGeometry>
                </mxCell>
                <mxCell id="8" value="是否已占用" style="rhombus;whiteSpace=wrap;html=1;" parent="2" vertex="1">
                    <mxGeometry x="20" y="160" width="130" height="70" as="geometry"/>
                </mxCell>
                <mxCell id="9" value="" style="endArrow=classic;html=1;exitX=0.5;exitY=1;exitDx=0;exitDy=0;entryX=0.5;entryY=0;entryDx=0;entryDy=0;" parent="2" source="4" target="8" edge="1">
                    <mxGeometry width="50" height="50" relative="1" as="geometry">
                        <mxPoint x="160" y="240" as="sourcePoint"/>
                        <mxPoint x="210" y="190" as="targetPoint"/>
                    </mxGeometry>
                </mxCell>
                <mxCell id="29" style="edgeStyle=none;html=1;exitX=0.5;exitY=1;exitDx=0;exitDy=0;entryX=0.5;entryY=0;entryDx=0;entryDy=0;" parent="2" source="13" target="28" edge="1">
                    <mxGeometry relative="1" as="geometry"/>
                </mxCell>
                <mxCell id="13" value="八个方向遍历&lt;div&gt;direction : all directions&lt;/div&gt;" style="rounded=0;whiteSpace=wrap;html=1;" parent="2" vertex="1">
                    <mxGeometry x="230" y="70" width="200" height="40" as="geometry"/>
                </mxCell>
                <mxCell id="25" style="edgeStyle=none;html=1;exitX=0.5;exitY=1;exitDx=0;exitDy=0;" parent="2" source="18" target="24" edge="1">
                    <mxGeometry relative="1" as="geometry"/>
                </mxCell>
                <mxCell id="27" value="是" style="edgeLabel;html=1;align=center;verticalAlign=middle;resizable=0;points=[];" parent="25" vertex="1" connectable="0">
                    <mxGeometry x="-0.2688" y="-3" relative="1" as="geometry">
                        <mxPoint as="offset"/>
                    </mxGeometry>
                </mxCell>
                <mxCell id="40" style="edgeStyle=none;html=1;exitX=1;exitY=0.5;exitDx=0;exitDy=0;entryX=0.5;entryY=0;entryDx=0;entryDy=0;" parent="2" source="18" target="35" edge="1">
                    <mxGeometry relative="1" as="geometry">
                        <Array as="points">
                            <mxPoint x="480" y="380"/>
                            <mxPoint x="480" y="320"/>
                            <mxPoint x="600" y="320"/>
                        </Array>
                    </mxGeometry>
                </mxCell>
                <mxCell id="42" value="否" style="edgeLabel;html=1;align=center;verticalAlign=middle;resizable=0;points=[];" parent="40" vertex="1" connectable="0">
                    <mxGeometry x="-0.8818" y="2" relative="1" as="geometry">
                        <mxPoint as="offset"/>
                    </mxGeometry>
                </mxCell>
                <mxCell id="18" value="是否是异色棋子" style="rhombus;whiteSpace=wrap;html=1;" parent="2" vertex="1">
                    <mxGeometry x="257.04" y="350" width="145" height="60" as="geometry"/>
                </mxCell>
                <mxCell id="41" style="edgeStyle=none;html=1;exitX=1;exitY=0.5;exitDx=0;exitDy=0;" parent="2" source="24" edge="1">
                    <mxGeometry relative="1" as="geometry">
                        <mxPoint x="330" y="130" as="targetPoint"/>
                        <Array as="points">
                            <mxPoint x="450" y="458"/>
                            <mxPoint x="450" y="130"/>
                        </Array>
                    </mxGeometry>
                </mxCell>
                <mxCell id="24" value="set 方向位=1" style="rounded=0;whiteSpace=wrap;html=1;" parent="2" vertex="1">
                    <mxGeometry x="262.04" y="445" width="135" height="25" as="geometry"/>
                </mxCell>
                <mxCell id="56" style="edgeStyle=none;html=1;exitX=1;exitY=0.5;exitDx=0;exitDy=0;entryX=0;entryY=0.5;entryDx=0;entryDy=0;" parent="2" source="28" target="55" edge="1">
                    <mxGeometry relative="1" as="geometry"/>
                </mxCell>
                <mxCell id="62" value="否" style="edgeLabel;html=1;align=center;verticalAlign=middle;resizable=0;points=[];" parent="56" vertex="1" connectable="0">
                    <mxGeometry x="-0.5762" y="-1" relative="1" as="geometry">
                        <mxPoint as="offset"/>
                    </mxGeometry>
                </mxCell>
                <mxCell id="28" value="是否可移动焦点" style="rhombus;whiteSpace=wrap;html=1;" parent="2" vertex="1">
                    <mxGeometry x="234.54" y="190" width="190" height="80" as="geometry"/>
                </mxCell>
                <mxCell id="30" style="edgeStyle=none;html=1;exitX=0.5;exitY=1;exitDx=0;exitDy=0;" parent="2" source="28" target="32" edge="1">
                    <mxGeometry relative="1" as="geometry"/>
                </mxCell>
                <mxCell id="31" value="是" style="edgeLabel;html=1;align=center;verticalAlign=middle;resizable=0;points=[];" parent="30" vertex="1" connectable="0">
                    <mxGeometry x="-0.1594" y="-2" relative="1" as="geometry">
                        <mxPoint as="offset"/>
                    </mxGeometry>
                </mxCell>
                <mxCell id="34" style="edgeStyle=none;html=1;exitX=0.5;exitY=1;exitDx=0;exitDy=0;entryX=0.5;entryY=0;entryDx=0;entryDy=0;" parent="2" source="32" target="18" edge="1">
                    <mxGeometry relative="1" as="geometry"/>
                </mxCell>
                <mxCell id="32" value="移动" style="rounded=0;whiteSpace=wrap;html=1;" parent="2" vertex="1">
                    <mxGeometry x="299.54" y="310" width="60" height="20" as="geometry"/>
                </mxCell>
                <mxCell id="43" style="edgeStyle=none;html=1;exitX=1;exitY=0.5;exitDx=0;exitDy=0;entryX=1;entryY=0.5;entryDx=0;entryDy=0;rounded=0;curved=0;" parent="2" source="35" target="13" edge="1">
                    <mxGeometry relative="1" as="geometry">
                        <Array as="points">
                            <mxPoint x="720" y="380"/>
                            <mxPoint x="720" y="90"/>
                        </Array>
                    </mxGeometry>
                </mxCell>
                <mxCell id="44" value="否&lt;div&gt;(是空白）&lt;/div&gt;" style="edgeLabel;html=1;align=center;verticalAlign=middle;resizable=0;points=[];" parent="43" vertex="1" connectable="0">
                    <mxGeometry x="-0.9325" relative="1" as="geometry">
                        <mxPoint x="3" as="offset"/>
                    </mxGeometry>
                </mxCell>
                <mxCell id="46" style="edgeStyle=none;html=1;exitX=0.5;exitY=1;exitDx=0;exitDy=0;entryX=0.5;entryY=0;entryDx=0;entryDy=0;" parent="2" source="35" target="45" edge="1">
                    <mxGeometry relative="1" as="geometry"/>
                </mxCell>
                <mxCell id="47" value="是" style="edgeLabel;html=1;align=center;verticalAlign=middle;resizable=0;points=[];" parent="46" vertex="1" connectable="0">
                    <mxGeometry x="-0.2473" y="-1" relative="1" as="geometry">
                        <mxPoint as="offset"/>
                    </mxGeometry>
                </mxCell>
                <mxCell id="35" value="是否是同色棋子" style="rhombus;whiteSpace=wrap;html=1;" parent="2" vertex="1">
                    <mxGeometry x="520" y="347.5" width="150" height="60" as="geometry"/>
                </mxCell>
                <mxCell id="48" style="edgeStyle=none;html=1;exitX=1;exitY=0.5;exitDx=0;exitDy=0;rounded=0;curved=0;" parent="2" source="45" edge="1">
                    <mxGeometry relative="1" as="geometry">
                        <mxPoint x="720" y="377.5" as="targetPoint"/>
                        <Array as="points">
                            <mxPoint x="720" y="467.5"/>
                        </Array>
                    </mxGeometry>
                </mxCell>
                <mxCell id="49" value="否" style="edgeLabel;html=1;align=center;verticalAlign=middle;resizable=0;points=[];" parent="48" vertex="1" connectable="0">
                    <mxGeometry x="-0.7268" y="-1" relative="1" as="geometry">
                        <mxPoint x="1" y="-1" as="offset"/>
                    </mxGeometry>
                </mxCell>
                <mxCell id="52" style="edgeStyle=none;html=1;exitX=0.5;exitY=1;exitDx=0;exitDy=0;entryX=0.5;entryY=0;entryDx=0;entryDy=0;" parent="2" source="45" target="50" edge="1">
                    <mxGeometry relative="1" as="geometry"/>
                </mxCell>
                <mxCell id="54" value="是" style="edgeLabel;html=1;align=center;verticalAlign=middle;resizable=0;points=[];" parent="52" vertex="1" connectable="0">
                    <mxGeometry x="-0.4498" relative="1" as="geometry">
                        <mxPoint as="offset"/>
                    </mxGeometry>
                </mxCell>
                <mxCell id="45" value="方向位 == 1" style="rhombus;whiteSpace=wrap;html=1;" parent="2" vertex="1">
                    <mxGeometry x="520" y="437.5" width="150" height="60" as="geometry"/>
                </mxCell>
                <mxCell id="53" style="edgeStyle=none;html=1;exitX=1;exitY=0.5;exitDx=0;exitDy=0;rounded=0;curved=0;" parent="2" source="50" edge="1">
                    <mxGeometry relative="1" as="geometry">
                        <mxPoint x="720" y="467.5" as="targetPoint"/>
                        <Array as="points">
                            <mxPoint x="720" y="552.5"/>
                        </Array>
                    </mxGeometry>
                </mxCell>
                <mxCell id="50" value="保持方向位 = 1" style="rounded=0;whiteSpace=wrap;html=1;" parent="2" vertex="1">
                    <mxGeometry x="535" y="537.5" width="120" height="30" as="geometry"/>
                </mxCell>
                <mxCell id="57" style="edgeStyle=none;html=1;exitX=0.5;exitY=0;exitDx=0;exitDy=0;" parent="2" source="55" edge="1">
                    <mxGeometry relative="1" as="geometry">
                        <mxPoint x="550" y="90" as="targetPoint"/>
                    </mxGeometry>
                </mxCell>
                <mxCell id="55" value="set 方向位 = 0" style="rounded=0;whiteSpace=wrap;html=1;" parent="2" vertex="1">
                    <mxGeometry x="490" y="200" width="120" height="60" as="geometry"/>
                </mxCell>
                <mxCell id="59" value="exit with legalDiretion" style="rounded=0;whiteSpace=wrap;html=1;" parent="2" vertex="1">
                    <mxGeometry x="195.5" y="680" width="379" height="60" as="geometry"/>
                </mxCell>
            </root>
        </mxGraphModel>
    </diagram>
</mxfile>